<?xml version="1.0" encoding="UTF-8" standalone="no"?>
<!-- Generator: Adobe Illustrator 16.0.0, SVG Export Plug-In . SVG Version: 6.00 Build 0)  -->

<svg
   xmlns:dc="http://purl.org/dc/elements/1.1/"
   xmlns:cc="http://creativecommons.org/ns#"
   xmlns:rdf="http://www.w3.org/1999/02/22-rdf-syntax-ns#"
   xmlns:svg="http://www.w3.org/2000/svg"
   xmlns="http://www.w3.org/2000/svg"
   xmlns:sodipodi="http://sodipodi.sourceforge.net/DTD/sodipodi-0.dtd"
   xmlns:inkscape="http://www.inkscape.org/namespaces/inkscape"
   width="535"
   height="80"
   version="1.1"
   id="Layer_1"
   x="0px"
   y="0px"
   xml:space="preserve"
   sodipodi:docname="logo.svg"
   inkscape:version="0.92.3 (2405546, 2018-03-11)"><metadata
   id="metadata9"><rdf:RDF><cc:Work
       rdf:about=""><dc:format>image/svg+xml</dc:format><dc:type
         rdf:resource="http://purl.org/dc/dcmitype/StillImage" /></cc:Work></rdf:RDF></metadata><sodipodi:namedview
   pagecolor="#ffffff"
   bordercolor="#666666"
   borderopacity="1"
   objecttolerance="10"
   gridtolerance="10"
   guidetolerance="10"
   inkscape:pageopacity="0"
   inkscape:pageshadow="2"
   inkscape:window-width="1680"
   inkscape:window-height="987"
   id="namedview7"
   showgrid="false"
   inkscape:zoom="0.58691589"
   inkscape:cx="-31.520701"
   inkscape:cy="81.5"
   inkscape:window-x="-8"
   inkscape:window-y="-8"
   inkscape:window-maximized="1"
   inkscape:current-layer="Layer_1" />
	<defs
   id="SvgjsDefs1010" /><g
   id="SvgjsG1013"
   featurekey="text1"
   transform="matrix(3.7453187,0,0,3.7453187,-5.2434456,-18.00549)"
   style="fill:#000000"><path
     d="m 9.94,19.04 q 0,1.02 -0.39,1.92 -0.39,0.9 -1.06,1.58 Q 7.82,23.22 6.92,23.61 6.02,24 5,24 4.02,24 3.1,23.62 2.18,23.24 1.5,22.54 q -0.1,-0.1 -0.1,-0.2 0,-0.1 0.11,-0.21 0.11,-0.11 0.23,-0.11 0.08,0 0.32,0.21 0.24,0.21 0.65,0.47 0.41,0.26 0.98,0.47 0.57,0.21 1.33,0.21 0.9,0 1.69,-0.34 Q 7.5,22.7 8.09,22.11 8.68,21.52 9.02,20.73 9.36,19.94 9.36,19.04 V 8.3 Q 9.36,8.18 9.45,8.09 9.54,8 9.66,8 9.78,8 9.86,8.09 9.94,8.18 9.94,8.3 Z m 13.36,1 q 0,0.8 -0.3,1.52 -0.3,0.72 -0.83,1.26 -0.53,0.54 -1.24,0.86 Q 20.22,24 19.42,24 H 17.88 Q 17.06,24 16.34,23.69 15.62,23.38 15.08,22.84 14.54,22.3 14.23,21.58 13.92,20.86 13.92,20.04 V 8.3 q 0,-0.12 0.09,-0.21 Q 14.1,8 14.22,8 q 0.12,0 0.21,0.09 0.09,0.09 0.09,0.21 v 11.74 q 0,0.68 0.27,1.29 0.27,0.61 0.73,1.07 0.46,0.46 1.07,0.73 0.61,0.27 1.29,0.27 h 1.54 q 0.68,0 1.28,-0.27 0.6,-0.27 1.04,-0.73 0.44,-0.46 0.7,-1.07 0.26,-0.61 0.26,-1.29 V 8.3 Q 22.7,8.18 22.79,8.09 22.88,8 23,8 23.12,8 23.21,8.09 23.3,8.18 23.3,8.3 Z M 37.36,19.7 q 0,1.08 -0.47,1.89 -0.47,0.81 -1.24,1.34 -0.77,0.53 -1.72,0.8 -0.95,0.27 -1.91,0.27 -1.7,0 -3.22,-0.66 -1.52,-0.66 -2.72,-1.8 -0.12,-0.12 -0.12,-0.22 0,-0.12 0.1,-0.23 0.1,-0.11 0.24,-0.11 0.1,0 0.2,0.1 1.24,1.04 2.57,1.67 1.33,0.63 2.99,0.63 0.84,0 1.67,-0.23 0.83,-0.23 1.5,-0.7 0.67,-0.47 1.08,-1.17 0.41,-0.7 0.41,-1.64 0,-0.76 -0.36,-1.31 Q 36,17.78 35.42,17.39 34.84,17 34.09,16.74 33.34,16.48 32.58,16.29 31.82,16.1 31.09,15.96 30.36,15.82 29.82,15.68 29.16,15.5 28.55,15.19 q -0.61,-0.31 -1.07,-0.77 -0.46,-0.46 -0.73,-1.07 -0.27,-0.61 -0.27,-1.37 0,-1.02 0.47,-1.77 0.47,-0.75 1.22,-1.24 0.75,-0.49 1.66,-0.74 0.91,-0.25 1.79,-0.25 0.56,0 1.27,0.12 0.71,0.12 1.42,0.35 0.71,0.23 1.33,0.55 0.62,0.32 1.04,0.72 0.06,0.06 0.09,0.1 0.03,0.04 0.03,0.14 0,0.12 -0.1,0.22 -0.1,0.1 -0.22,0.1 -0.04,0 -0.15,-0.06 Q 36.22,10.16 36.09,10.07 35.96,9.98 35.85,9.91 35.74,9.84 35.68,9.8 34.78,9.26 33.76,8.94 32.74,8.62 31.66,8.62 30.9,8.62 30.1,8.81 29.3,9 28.63,9.4 q -0.67,0.4 -1.1,1.03 -0.43,0.63 -0.43,1.51 0,0.96 0.44,1.57 0.44,0.61 1.16,1 0.72,0.39 1.64,0.63 0.92,0.24 1.89,0.46 0.97,0.22 1.89,0.48 0.92,0.26 1.64,0.71 0.72,0.45 1.16,1.14 0.44,0.69 0.44,1.77 z M 50.78,8.3 q 0,0.12 -0.09,0.21 Q 50.6,8.6 50.48,8.6 H 40.64 Q 40.52,8.6 40.43,8.51 40.34,8.42 40.34,8.3 40.34,8.18 40.43,8.09 40.52,8 40.64,8 h 9.84 q 0.12,0 0.21,0.09 0.09,0.09 0.09,0.21 z m 0.1,1.94 q 0,0.12 -0.09,0.22 -0.09,0.1 -0.21,0.1 H 45.94 V 23.7 q 0,0.12 -0.1,0.21 Q 45.74,24 45.62,24 45.5,24 45.4,23.92 45.3,23.84 45.3,23.7 V 10.56 h -4.66 q -0.12,0 -0.21,-0.1 -0.09,-0.1 -0.09,-0.22 0,-0.12 0.08,-0.23 Q 40.5,9.9 40.64,9.9 h 9.94 q 0.14,0 0.22,0.11 0.08,0.11 0.08,0.23 z M 78.96,8.28 q 0,0.1 -0.02,0.12 v 15.3 q 0,0.12 -0.09,0.21 Q 78.76,24 78.64,24 78.52,24 78.44,23.91 78.36,23.82 78.36,23.7 V 9.26 l -6.9,9.66 q 0.08,0.14 0.36,0.52 0.28,0.38 0.65,0.89 0.37,0.51 0.79,1.06 0.42,0.55 0.76,1.04 0.34,0.49 0.57,0.83 0.23,0.34 0.23,0.42 0,0.14 -0.1,0.23 Q 74.62,24 74.5,24 74.34,24 74.26,23.88 L 63.26,8.56 Q 63.2,8.48 63.2,8.36 q 0,-0.12 0.08,-0.21 0.08,-0.09 0.22,-0.09 0.18,0 0.26,0.14 L 71.08,18.4 78.4,8.12 Q 78.48,8 78.62,8 q 0.12,0 0.23,0.08 0.11,0.08 0.11,0.2 z M 72.4,23.7 q 0,0.12 -0.1,0.21 Q 72.2,24 72.08,24 71.92,24 71.84,23.88 L 63.8,12.6 v 11 q 0,0.14 -0.1,0.22 -0.1,0.08 -0.22,0.08 -0.12,0 -0.22,-0.09 -0.1,-0.09 -0.1,-0.21 V 11.68 q 0,-0.14 0.08,-0.26 0.08,-0.12 0.24,-0.12 0.16,0 0.24,0.14 0.14,0.2 0.59,0.81 0.45,0.61 1.08,1.49 0.63,0.88 1.4,1.94 0.77,1.06 1.55,2.15 0.78,1.09 1.51,2.12 0.73,1.03 1.3,1.84 0.57,0.81 0.91,1.33 0.34,0.52 0.34,0.58 z M 98.6,16 q 0,1.66 -0.63,3.12 -0.63,1.46 -1.71,2.54 -1.08,1.08 -2.54,1.71 Q 92.26,24 90.6,24 88.94,24 87.48,23.37 86.02,22.74 84.94,21.66 83.86,20.58 83.23,19.12 82.6,17.66 82.6,16 q 0,-1.66 0.63,-3.12 0.63,-1.46 1.71,-2.54 Q 86.02,9.26 87.48,8.63 88.94,8 90.6,8 q 1.66,0 3.12,0.63 1.46,0.63 2.54,1.71 1.08,1.08 1.71,2.54 0.63,1.46 0.63,3.12 z m -0.62,0 q 0,-1.52 -0.58,-2.86 Q 96.82,11.8 95.81,10.79 94.8,9.78 93.46,9.2 92.12,8.62 90.6,8.62 q -1.52,0 -2.86,0.58 -1.34,0.58 -2.35,1.59 -1.01,1.01 -1.59,2.35 -0.58,1.34 -0.58,2.86 0,1.52 0.58,2.86 0.58,1.34 1.59,2.35 1.01,1.01 2.35,1.59 1.34,0.58 2.86,0.58 1.52,0 2.86,-0.58 1.34,-0.58 2.35,-1.59 1.01,-1.01 1.59,-2.35 0.58,-1.34 0.58,-2.86 z m 14.88,-7.7 q 0,0.04 -0.25,0.68 -0.25,0.64 -0.65,1.67 -0.4,1.03 -0.92,2.34 -0.52,1.31 -1.08,2.7 -0.56,1.39 -1.1,2.75 -0.54,1.36 -0.99,2.48 -0.45,1.12 -0.75,1.89 -0.3,0.77 -0.38,0.99 -0.08,0.2 -0.28,0.2 -0.06,-0.04 -0.15,-0.08 -0.09,-0.04 -0.13,-0.12 -0.08,-0.2 -0.38,-0.98 -0.3,-0.78 -0.73,-1.9 -0.43,-1.12 -0.96,-2.48 -0.53,-1.36 -1.07,-2.75 -0.54,-1.39 -1.04,-2.71 -0.5,-1.32 -0.89,-2.34 -0.39,-1.02 -0.63,-1.66 -0.24,-0.64 -0.24,-0.66 0,-0.14 0.09,-0.23 0.09,-0.09 0.21,-0.09 0.24,0 0.3,0.2 l 4.64,12.08 4.78,-12.08 q 0.06,-0.2 0.3,-0.2 0.12,0 0.21,0.09 0.09,0.09 0.09,0.21 0,0.04 -0.2,0.56 -0.2,0.52 -0.53,1.37 -0.33,0.85 -0.75,1.94 -0.42,1.09 -0.88,2.24 -0.46,1.15 -0.9,2.27 -0.44,1.12 -0.81,2.05 -0.37,0.93 -0.63,1.57 -0.26,0.64 -0.34,0.82 l 0.64,1.7 5.8,-14.62 q 0.06,-0.2 0.3,-0.2 0.12,0 0.21,0.09 0.09,0.09 0.09,0.21 z m 4.12,15.4 q 0,0.14 -0.1,0.22 -0.1,0.08 -0.22,0.08 -0.12,0 -0.21,-0.09 -0.09,-0.09 -0.09,-0.21 V 8.3 q 0,-0.12 0.09,-0.21 0.09,-0.09 0.21,-0.09 0.12,0 0.22,0.08 0.1,0.08 0.1,0.22 z m 14.72,-0.04 q 0,0.12 -0.08,0.23 Q 131.54,24 131.4,24 h -9.8 q -0.14,0 -0.23,-0.1 -0.09,-0.1 -0.09,-0.24 V 8.3 q 0,-0.14 0.1,-0.22 Q 121.48,8 121.6,8 h 9.8 q 0.12,0 0.21,0.09 0.09,0.09 0.09,0.21 0,0.12 -0.09,0.21 -0.09,0.09 -0.21,0.09 h -9.52 v 6.22 h 7.42 q 0.12,0 0.21,0.09 0.09,0.09 0.09,0.21 0,0.12 -0.09,0.21 -0.09,0.09 -0.21,0.09 h -7.38 l -0.02,1.36 h 7.48 q 0.32,0 0.32,0.32 0,0.12 -0.1,0.22 -0.1,0.1 -0.22,0.1 h -7.5 v 5.9 h 9.52 q 0.12,0 0.21,0.11 0.09,0.11 0.09,0.23 z m 12.58,-3.96 q 0,1.08 -0.47,1.89 -0.47,0.81 -1.24,1.34 -0.77,0.53 -1.72,0.8 -0.95,0.27 -1.91,0.27 -1.7,0 -3.22,-0.66 -1.52,-0.66 -2.72,-1.8 -0.12,-0.12 -0.12,-0.22 0,-0.12 0.1,-0.23 0.1,-0.11 0.24,-0.11 0.1,0 0.2,0.1 1.24,1.04 2.57,1.67 1.33,0.63 2.99,0.63 0.84,0 1.67,-0.23 0.83,-0.23 1.5,-0.7 0.67,-0.47 1.08,-1.17 0.41,-0.7 0.41,-1.64 0,-0.76 -0.36,-1.31 -0.36,-0.55 -0.94,-0.94 -0.58,-0.39 -1.33,-0.65 -0.75,-0.26 -1.51,-0.45 -0.76,-0.19 -1.49,-0.33 -0.73,-0.14 -1.27,-0.28 -0.66,-0.18 -1.27,-0.49 -0.61,-0.31 -1.07,-0.77 -0.46,-0.46 -0.73,-1.07 -0.27,-0.61 -0.27,-1.37 0,-1.02 0.47,-1.77 0.47,-0.75 1.22,-1.24 0.75,-0.49 1.66,-0.74 0.91,-0.25 1.79,-0.25 0.56,0 1.27,0.12 0.71,0.12 1.42,0.35 0.71,0.23 1.33,0.55 0.62,0.32 1.04,0.72 0.06,0.06 0.09,0.1 0.03,0.04 0.03,0.14 0,0.12 -0.1,0.22 -0.1,0.1 -0.22,0.1 -0.04,0 -0.15,-0.06 -0.11,-0.06 -0.24,-0.15 -0.13,-0.09 -0.24,-0.16 -0.11,-0.07 -0.17,-0.11 -0.9,-0.54 -1.92,-0.86 -1.02,-0.32 -2.1,-0.32 -0.76,0 -1.56,0.19 -0.8,0.19 -1.47,0.59 -0.67,0.4 -1.1,1.03 -0.43,0.63 -0.43,1.51 0,0.96 0.44,1.57 0.44,0.61 1.16,1 0.72,0.39 1.64,0.63 0.92,0.24 1.89,0.46 0.97,0.22 1.89,0.48 0.92,0.26 1.64,0.71 0.72,0.45 1.16,1.14 0.44,0.69 0.44,1.77 z"
     id="path3"
     inkscape:connector-curvature="0" /></g></svg>